<?xml version="1.0" encoding="utf-8"?>
<!-- Generator: Adobe Illustrator 22.0.0, SVG Export Plug-In . SVG Version: 6.00 Build 0)  -->
<svg version="1.1" id="Layer_1" xmlns="http://www.w3.org/2000/svg" xmlns:xlink="http://www.w3.org/1999/xlink" x="0px" y="0px"
	 viewBox="0 0 66.4 71.1" style="enable-background:new 0 0 66.4 71.1;" xml:space="preserve">
<g>
	<path d="M33.2,0C14.9,0,0,14.4,0,32.2c0,11,5.9,21.4,15.5,27.2l-0.1,11.7l2.6-0.8c4.9-1.5,29.6-9,32.4-10.6c10-5.9,16-16.2,16-27.5
		C66.4,14.4,51.5,0,33.2,0z M48.4,56.2c-1.7,1-17.7,6-28.9,9.5l0-8.6l-1-0.6C9.6,51.5,4,42.2,4,32.2C4,16.6,17.1,4,33.2,4
		c16.1,0,29.2,12.6,29.2,28.2C62.4,42.1,57.2,51,48.4,56.2z"/>
	<path d="M52.2,19.8c-0.8-0.8-1.8-1.3-3.1-1.6c-1.7-0.4-3.4-0.3-5.7,0c-2.2,0.3-4.4,1-6.9,1.9c-0.4,0.2-0.8,0.3-1.2,0.5l-1.5,0.6
		l1.2,0.6c0.5,0.2,0.8,0.4,1.2,0.7c0.3,0.2,0.6,0.2,0.9,0.1c1.3-0.5,2.6-1,3.9-1.3c2.4-0.7,4.3-0.9,6.1-0.9c1.1,0,2,0.2,2.7,0.5
		c0.9,0.4,1.3,1,1.4,1.8c0.1,0.5,0,1.1-0.3,1.8c-0.4,1.2-1.1,2.4-2.2,3.8c-0.4,0.6-1,1.2-1.6,1.8l-0.4-0.4c-0.4-0.3-0.8-0.7-1.2-1
		c-4.8-3.9-10.1-6.9-15.9-9c-0.5-0.2-0.8-0.3-1.1-0.1c-0.1,0-0.2,0.1-0.2,0.2c0.5-1.9,1.1-3.4,1.9-4.7c0.6-1.2,1.3-1.9,2-2.5
		c1-0.7,1.9-0.8,2.9-0.1c0.2,0.1,0.4,0.3,0.6,0.5c-0.8,1.1-0.9,2.6-0.2,3.9c0.7,1.3,2.1,1.9,3.6,1.8c1-0.1,1.8-0.7,2.4-1.5
		c0.6-0.8,0.8-1.7,0.6-2.6c-0.2-1-0.8-1.9-1.6-2.4c-0.8-0.5-1.8-0.7-2.7-0.4c-0.9-1-1.9-1.6-3-1.9c-0.1,0-0.2,0-0.3,0l-0.1-0.1h-1.5
		l0,0.1c-0.7,0.2-1.4,0.5-2.1,1c-1.3,1-2.2,2.4-2.8,3.5c-0.7,1.3-1.3,2.7-1.8,4.5c-1.4-0.3-2.7-0.6-3.9-0.7c-1.7-0.1-3-0.1-4.2,0.3
		c-1.4,0.4-2.5,1-3.2,1.9c-0.9,1.2-1.2,2.6-0.8,4.4c0.4,1.6,1.2,2.9,1.8,3.9c0.6,0.9,1.3,1.7,2,2.5l0,0c0.1,0.2,0.2,0.3,0.3,0.4
		c0,0,0.1,0.1,0.1,0.1c0.1,0.2,0.3,0.3,0.4,0.4c0.1,0.1,0.2,0.1,0.3,0.3c0.2,0.1,0.3,0.3,0.4,0.4c0.3,0.3,0.5,0.5,0.8,0.8
		c0.1,0,0.1,0.1,0.2,0.2l0.1,0.1c0.1,0.1,0.3,0.3,0.5,0.3l0.3,0.3c0.8,0.7,1.6,1.4,2.5,2l0.8,0.6v-1c0-0.1,0-0.3,0-0.4
		c0-0.3,0-0.5,0-0.8c0.1-0.6-0.1-1-0.5-1.3c-0.1-0.1-0.2-0.2-0.3-0.3c0,0-0.1,0-0.1-0.1c-0.1-0.1-0.1-0.1-0.2-0.2
		c0,0-0.1-0.1-0.2-0.2c0,0-0.1-0.1-0.2-0.1c0,0-0.1-0.1-0.2-0.1l-0.3-0.3c-0.1-0.1-0.2-0.2-0.4-0.3c-0.1-0.1-0.1-0.1-0.2-0.2
		l-0.1-0.1c-0.1-0.1-0.2-0.2-0.3-0.3L21,31.1c-0.2-0.2-0.5-0.4-0.7-0.7l-0.1-0.1c-0.1-0.1-0.2-0.2-0.3-0.3c-0.1-0.1-0.1-0.1-0.2-0.2
		c-0.7-0.8-1.5-1.8-2.3-2.9c-0.6-0.9-1.2-2-1.3-3.3c-0.1-0.9,0.2-1.6,0.8-2.1c0.4-0.3,0.9-0.5,1.5-0.7c1-0.2,2-0.3,3.1-0.2
		c1.2,0.1,2.4,0.3,3.7,0.6c0,0.2-0.1,0.4-0.1,0.6l0,0.1c-0.3,1.6-0.6,3.3-0.7,5c-0.1,1.2-0.2,2.3-0.2,3.5l0,0.7c0,0.8,0,1.7,0.1,2.5
		c0,0.9,0.1,1.7,0.2,2.6c0.1,1.8,0.4,3.7,0.8,5.8c0,0.2,0.1,0.4,0.3,0.5c0.1,0.1,0.2,0.1,0.2,0.1c-1.8,0.5-3.9,0.9-6.1,0.7
		c-1-0.1-1.7-0.3-2.3-0.6c-0.7-0.4-1.1-0.9-1.2-1.7c-0.1-0.4,0-0.9,0.1-1.4c1,0.1,2-0.2,2.7-0.9c0.8-0.7,1.2-1.7,1.2-2.8
		c0-1.8-1.3-3.1-3.1-3.4c-1.6-0.3-3.3,0.8-3.8,2.3c-0.1,0.2-0.1,0.3-0.1,0.5L13,35.6l0,1.4l0.1,0c0.2,0.6,0.5,1.1,0.9,1.6
		c-0.2,0.7-0.3,1.4-0.4,2.1c0,1.8,0.7,3.1,2.2,4.1c1.1,0.7,2.4,1,4.1,1.1c1.8,0.1,3.8-0.1,6.1-0.7c0.6,2.1,1.3,3.8,2.2,5.2
		c0.9,1.5,1.8,2.5,2.9,3.2c0.5,0.3,1.1,0.5,1.7,0.7l1.8,0l0-0.1l0,0c1.3-0.3,2.3-1.1,3.4-2.4c1.1-1.3,1.9-2.9,2.7-5.1
		c0.7-2,1.3-4.2,1.7-6.8c0.1-0.3,0.1-0.7,0.1-1l0.2-1.6l-0.9,0.6c-0.6,0.4-1,0.6-1.5,0.9c-0.3,0.2-0.4,0.5-0.4,0.6
		c-0.1,0.8-0.3,1.6-0.4,2.5c-0.5,2.5-1.2,4.5-2,6.2c-0.7,1.3-1.3,2.3-2.1,3c-1,0.9-2,1.1-3,0.4c-0.6-0.4-1.2-0.9-1.7-1.7
		c-1.2-1.7-1.8-3.6-2.3-5.2c1-0.3,2-0.7,3-1.1c5.5-2.2,10.5-5.2,14.9-8.9c0,0,0.1-0.1,0.1-0.1c0.2-0.2,0.5-0.4,0.6-0.7
		c0-0.1,0-0.2,0-0.3c1.6,1.7,2.8,3.2,3.6,4.8c0.4,0.7,0.6,1.4,0.7,2.2c0.1,1-0.3,1.9-1.1,2.4c-0.3,0.2-0.6,0.3-1,0.4
		c-0.6-1.4-2.2-2.3-3.7-2.1c-1.7,0.3-3,1.6-3.1,3.3C42,46.1,43.3,47.7,45,48c0.2,0,0.4,0.1,0.7,0.1c1.6,0,2.9-1,3.4-2.5
		c0.3-0.1,0.6-0.1,1-0.3c1.6-0.6,2.7-1.6,3.2-3c0-0.1,0-0.2,0.1-0.3c0-0.1,0-0.1,0-0.2l0.1-0.1v-1.9l0-0.1c0-0.1,0-0.2-0.1-0.3
		c0-0.2,0-0.3-0.1-0.5c-0.3-1.1-0.9-2.3-1.6-3.5c-0.8-1.2-1.7-2.3-2.8-3.5c0,0,0.1-0.1,0.1-0.1c0.8-0.9,1.7-1.9,2.4-3
		c0.9-1.3,1.8-2.8,2-4.7V22l-0.1,0C53.2,21.1,52.8,20.4,52.2,19.8z M28.5,22c3.9,1.4,7.8,3.3,11.6,5.9c1.4,1,2.6,1.9,3.7,2.8
		c0.1,0.1,0.2,0.2,0.3,0.3l0.1,0.1c0.1,0.1,0.2,0.1,0.3,0.3c0.2,0.2,0.5,0.4,0.8,0.7l-0.1,0c-0.2,0.1-0.3,0.2-0.4,0.3l-0.3,0.3
		c-0.2,0.1-0.4,0.3-0.6,0.4c-0.1,0.1-0.2,0.1-0.3,0.2c-0.2,0.1-0.4,0.3-0.6,0.5c-1.2,1-2.6,2-4.2,3c-3.9,2.5-7.7,4.2-11.5,5.4
		c0.2-0.2,0.2-0.4,0.2-0.6c-0.3-1.5-0.5-3-0.7-4.6c-0.1-1-0.2-2.3-0.2-3.5c0-0.2,0-0.4,0-0.6l0-0.2c0-0.2,0-0.5,0-0.7
		c0-0.5,0-0.9,0-1.4c0-1.2,0.1-2.3,0.2-3.7c0.2-1.9,0.5-3.7,0.9-5.4C27.8,21.7,28,21.9,28.5,22z M53.4,22.2l-0.5,0L53.4,22.2
		C53.4,22.2,53.4,22.2,53.4,22.2z"/>
	<path d="M28.2,33.6c0,0.1,0.1,0.2,0.2,0.3c0,0.1,0.1,0.2,0.2,0.3l0.1,0.1c0.7,1.4,1.9,2.4,3.4,2.8c0.5,0.1,1,0.2,1.5,0.2
		c1,0,2-0.3,2.9-0.8c0.9-0.6,1.6-1.4,2.2-2.5c0.1-0.2,0.2-0.3,0.2-0.4c0.1-0.2,0.1-0.3,0.2-0.4l0-0.1c0.1-0.5,0.2-1.1,0.1-1.9
		c0-0.1,0-0.1,0-0.2c0-0.1,0-0.1-0.1-0.3c0-0.1-0.1-0.3-0.2-0.4c0-0.1,0-0.1-0.1-0.2c-0.1-0.2-0.1-0.4-0.3-0.6l-0.1-0.1
		c-0.8-1.5-2.2-2.6-3.9-2.9c-1.7-0.3-3.4,0.2-4.7,1.3c-0.8,0.7-1.3,1.5-1.6,2.6c-0.1,0.1-0.1,0.2-0.1,0.3l0,0.1
		c0,0.1-0.1,0.3-0.1,0.3c-0.1,0.6-0.1,1.2,0.1,2L28.2,33.6z M37.2,33.5C37.2,33.5,37.2,33.5,37.2,33.5
		C37.2,33.5,37.2,33.5,37.2,33.5L37.2,33.5z"/>
</g>
</svg>
