<?xml version="1.0" encoding="utf-8"?>
<!-- Generator: Adobe Illustrator 22.0.0, SVG Export Plug-In . SVG Version: 6.00 Build 0)  -->
<svg version="1.1" id="Layer_1" xmlns="http://www.w3.org/2000/svg" xmlns:xlink="http://www.w3.org/1999/xlink" x="0px" y="0px"
	 viewBox="0 0 66.1 89.9" style="enable-background:new 0 0 66.1 89.9;" xml:space="preserve">
<style type="text/css">
	.st1345632{stroke:#000000;stroke-miterlimit:10;}
</style>
<g>
	<g>
		<path class="st1345632" d="M0.5,0.5c0.5,0,1,0,1.4,0c1.3,0,2.6,0,3.9,0c0.4,0,0.5,0.1,0.5,0.5c0,2.9,0,5.9,0,8.8c0,0.4-0.1,0.6-0.5,0.6
			c-1.6,0-3.3,0-4.9,0c-0.3,0-0.4,0-0.4-0.4c0-3,0-6.1,0-9.1C0.5,0.8,0.5,0.7,0.5,0.5z"/>
		<path class="st1345632" d="M36,82.7c2,0,3.9,0,5.9,0c0,0.1,0,0.2,0,0.3c0,2,0,4.9,0,4.9l-2.5,1.4c0,0-1.4,0-3.3,0c0,0-0.1,0-0.1,0
			C36,87.1,36,84.9,36,82.7z"/>
		<path class="st1345632" d="M12.3,63.7c0-1,0-1.9,0-2.8c0-1.1,0-2.3,0-3.4c0-0.3,0-0.4,0.3-0.4c1.8,0,3.6,0,5.4,0c0,0,0.1,0,0.2,0
			c0,2.2,0,4.4,0,6.6C16.3,63.7,14.3,63.7,12.3,63.7z"/>
		<path class="st1345632" d="M3.4,53.7c-0.8,0-1.7,0-2.5,0c-0.3,0-0.4-0.1-0.4-0.5c0-1.9,0-3.8,0-5.7c0-0.4,0.1-0.5,0.4-0.5
			c1.7,0,3.3,0,5,0c0.4,0,0.5,0.1,0.5,0.5c0,1.9,0,3.8,0,5.6c0,0.4-0.1,0.5-0.4,0.5C5.1,53.7,4.3,53.7,3.4,53.7z"/>
		<path class="st1345632" d="M0.5,37.1c0-0.9,0-1.9,0-2.8c0-0.3,0.1-0.5,0.4-0.5c1.7,0,3.4,0,5.1,0c0.3,0,0.4,0.1,0.4,0.4
			c0,1.9,0,3.8,0,5.7c0,0.3-0.1,0.5-0.4,0.5c-1.7,0-3.4,0-5.1,0c-0.3,0-0.4-0.1-0.4-0.4C0.5,39,0.5,38.1,0.5,37.1z"/>
		<path class="st1345632" d="M50.8,63.7c0.8,0,1.7,0,2.5,0c0.3,0,0.4,0.1,0.4,0.4c0,1.9,0,3.8,0,5.7c0,0.4-0.1,0.5-0.4,0.5
			c-1.7,0-3.4,0-5.1,0c-0.3,0-0.4-0.1-0.4-0.4c0-1.9,0-3.8,0-5.7c0-0.4,0.1-0.4,0.4-0.4C49.1,63.8,49.9,63.7,50.8,63.7z"/>
		<path class="st1345632" d="M36,70.4c0-2.2,0-4.4,0-6.6c2,0,3.9,0,5.9,0c0,0.1,0,0.3,0,0.4c0,1.9,0,3.8,0,5.7c0,0.2,0,0.5-0.3,0.5
			C39.8,70.4,37.9,70.4,36,70.4z"/>
		<path class="st1345632" d="M39,53.7c-0.8,0-1.7,0-2.5,0c-0.3,0-0.4-0.1-0.4-0.4c0-1.9,0-3.8,0-5.7c0-0.4,0.1-0.5,0.4-0.5
			c1.7,0,3.4,0,5.1,0c0.3,0,0.4,0.1,0.4,0.5c0,1.9,0,3.8,0,5.6c0,0.4-0.1,0.5-0.5,0.5C40.6,53.7,39.8,53.7,39,53.7z"/>
		<path class="st1345632" d="M53.7,40.4c0,0.9,0,1.9,0,2.8c0,0.3-0.1,0.5-0.4,0.5c-1.7,0-3.4,0-5.1,0c-0.3,0-0.4-0.1-0.4-0.5
			c0-1.9,0-3.8,0-5.7c0-0.4,0.1-0.5,0.4-0.5c1.7,0,3.4,0,5,0c0.3,0,0.4,0.1,0.4,0.5C53.7,38.5,53.7,39.4,53.7,40.4z"/>
		<path class="st1345632" d="M38.9,40.4c-0.8,0-1.6,0-2.4,0c-0.3,0-0.5-0.1-0.5-0.5c0-1.9,0-3.8,0-5.6c0-0.3,0.1-0.5,0.4-0.5
			c1.7,0,3.4,0,5,0c0.3,0,0.4,0.1,0.4,0.5c0,1.9,0,3.8,0,5.6c0,0.4-0.1,0.5-0.5,0.5C40.6,40.4,39.8,40.4,38.9,40.4z"/>
		<path class="st1345632" d="M15.3,30.4c-0.8,0-1.7,0-2.5,0c-0.3,0-0.4-0.1-0.4-0.5c0-1.9,0-3.8,0-5.7c0-0.4,0.1-0.5,0.4-0.5
			c1.7,0,3.4,0,5.1,0c0.3,0,0.4,0.1,0.4,0.4c0,1.9,0,3.8,0,5.7c0,0.3-0.1,0.5-0.4,0.5C17,30.4,16.1,30.4,15.3,30.4z"/>
		<path class="st1345632" d="M12.3,43.7c0-0.6,0-1.1,0-1.6c0-1.5,0-3,0-4.5c0-0.3,0-0.5,0.4-0.5c1.8,0,3.6,0,5.4,0c0,0,0.1,0,0.2,0
			c0,2.2,0,4.4,0,6.6C16.2,43.7,14.3,43.7,12.3,43.7z"/>
		<path class="st1345632" d="M15.2,17c-0.8,0-1.7,0-2.5,0c-0.3,0-0.4-0.1-0.4-0.5c0-1.9,0-3.8,0-5.6c0-0.4,0.1-0.5,0.4-0.5
			c1.7,0,3.4,0,5.1,0c0.3,0,0.4,0.1,0.4,0.5c0,1.9,0,3.8,0,5.6c0,0.4-0.1,0.5-0.4,0.5C16.9,17,16.1,17,15.2,17z"/>
		<path class="st1345632" d="M38.9,27c-0.8,0-1.7,0-2.5,0c-0.3,0-0.4-0.1-0.4-0.4c0-1.9,0-3.8,0-5.7c0-0.3,0.1-0.4,0.4-0.4
			c1.7,0,3.4,0,5.1,0c0.3,0,0.4,0.1,0.4,0.4c0,1.9,0,3.8,0,5.7c0,0.3-0.1,0.4-0.4,0.4C40.7,27,39.8,27,38.9,27z"/>
		<path class="st1345632" d="M30,30.4c0,0.9,0,1.9,0,2.8c0,0.3-0.1,0.5-0.4,0.5c-1.7,0-3.3,0-5,0c-0.3,0-0.4-0.1-0.4-0.4
			c0-1.9,0-3.8,0-5.7c0-0.4,0.1-0.5,0.4-0.5c1.7,0,3.3,0,5,0c0.3,0,0.4,0.1,0.4,0.4C30,28.5,30,29.5,30,30.4z"/>
		<path class="st1345632" d="M3.5,60.4c0.8,0,1.7,0,2.5,0c0.3,0,0.5,0.1,0.5,0.5c0,1.8,0,3.7,0,5.5C6.4,66.8,6.3,67,6,67c-1.7,0-3.3,0-5,0
			c-0.3,0-0.4-0.1-0.4-0.5c0-1.9,0-3.7,0-5.6c0-0.4,0.1-0.5,0.5-0.5C1.8,60.4,2.6,60.4,3.5,60.4z"/>
		<path class="st1345632" d="M65.5,43.7c-2,0-3.9,0-5.9,0c0-0.2,0-0.4,0-0.6c0-1.8,0-3.7,0-5.5c0-0.4,0.1-0.6,0.5-0.6c1.7,0,3.3,0,5,0
			c0.3,0,0.5,0,0.4,0.4c0,2,0,4,0,6C65.6,43.5,65.5,43.6,65.5,43.7z"/>
		<path class="st1345632" d="M50.7,57c-0.8,0-1.7,0-2.5,0c-0.3,0-0.4-0.1-0.4-0.4c0-1.9,0-3.8,0-5.7c0-0.3,0.1-0.4,0.4-0.4
			c1.7,0,3.5,0,5.2,0c0.2,0,0.3,0.1,0.3,0.4c0,1.9,0,3.8,0,5.7c0,0.3-0.1,0.4-0.4,0.4C52.4,57,51.6,57,50.7,57z"/>
		<path class="st1345632" d="M30,57.1c0,0.9,0,1.9,0,2.8c0,0.4-0.1,0.5-0.4,0.5c-1.6,0-3.3,0-4.9,0c-0.3,0-0.5-0.1-0.5-0.5
			c0-1.9,0-3.8,0-5.6c0-0.4,0.1-0.5,0.4-0.5c1.7,0,3.3,0,5,0c0.4,0,0.5,0.2,0.4,0.5C30,55.2,30,56.1,30,57.1z"/>
		<path class="st1345632" d="M30,23.7c-1.9,0-3.8,0-5.8,0c0-0.2,0-0.3,0-0.5c0-1.8,0-3.7,0-5.5c0-0.4,0.1-0.6,0.5-0.6c1.6,0,3.2,0,4.9,0
			c0.3,0,0.5,0,0.5,0.4c0,2,0,3.9,0,5.9C30,23.5,30,23.6,30,23.7z"/>
		<path class="st1345632" d="M65.5,23.8c0,0.9,0,1.9,0,2.8c0,0.3-0.1,0.5-0.4,0.5c-1.7,0-3.4,0-5.1,0c-0.3,0-0.4-0.1-0.4-0.4
			c0-1.9,0-3.8,0-5.7c0-0.3,0.1-0.4,0.4-0.4c1.7,0,3.4,0,5.1,0c0.3,0,0.4,0.1,0.4,0.5C65.5,21.9,65.5,22.8,65.5,23.8z"/>
		<path class="st1345632" d="M53.7,33.7c-1,0-2,0-3,0c-0.8,0-1.6,0-2.3,0c-0.3,0-0.4-0.1-0.4-0.4c0-1.9,0-3.8,0-5.7c0-0.3,0.1-0.5,0.4-0.5
			c1.7,0,3.4,0,5.1,0c0.2,0,0.4,0.1,0.4,0.4c0,2,0,4,0,6C53.7,33.6,53.7,33.6,53.7,33.7z"/>
		<path class="st1345632" d="M0.6,13.8c1.8,0,3.7,0,5.5,0c0.1,0,0.3,0.2,0.3,0.3c0,1.9,0,3.9,0,5.8c0,0.3-0.1,0.4-0.4,0.4
			c-1.7,0-3.4,0-5.1,0c-0.2,0-0.4,0-0.4-0.3c0-2,0-4.1,0-6.1C0.5,13.9,0.5,13.9,0.6,13.8z"/>
		<path class="st1345632" d="M53.7,23.7c-0.7,0-1.5,0-2.2,0c-1,0-2.1,0-3.1,0c-0.3,0-0.4-0.1-0.4-0.5c0-1.9,0-3.7,0-5.6
			c0-0.4,0.1-0.5,0.5-0.5c1.7,0,3.3,0,5,0c0.2,0,0.4,0,0.4,0.4c0,2,0,4,0,6C53.7,23.6,53.7,23.6,53.7,23.7z"/>
		<path class="st1345632" d="M65.5,13.8c0,0.9,0,1.9,0,2.8c0,0.4-0.1,0.5-0.4,0.5c-1.7,0-3.3,0-5,0c-0.3,0-0.4-0.1-0.4-0.5
			c0-1.9,0-3.7,0-5.6c0-0.4,0.1-0.5,0.4-0.5c1.7,0,3.3,0,5,0c0.3,0,0.4,0.1,0.4,0.5C65.5,11.9,65.5,12.8,65.5,13.8z"/>
		<path class="st1345632" d="M36,17.1c0-2.2,0-4.4,0-6.5c0.2,0,0.3,0,0.4,0c1.6,0,3.3,0,4.9,0c0.4,0,0.5,0.1,0.5,0.6c0,1.8,0,3.6,0,5.4
			c0,0.4-0.1,0.6-0.5,0.6c-1.6,0-3.3,0-4.9,0C36.4,17.1,36.2,17.1,36,17.1z"/>
		<path class="st1345632" d="M53.7,13.4c0,0.2-0.1,0.3-0.3,0.3c-1.3,0-2.5,0-3.7,0c-0.5,0-1,0-1.5,0c-0.3,0-0.4-0.2-0.3-0.7
			c0.2-1.7,0.3-3.4,0-5.1c-0.1-0.6,0-0.7,0.3-0.7c1.7,0,3.4,0,5.1,0c0.1,0,0.3,0.2,0.3,0.3C53.7,9.4,53.7,11.4,53.7,13.4z"/>
		<path class="st1345632" d="M27.1,70.4c0.8,0,1.7,0,2.5,0c0.3,0,0.4,0.1,0.4,0.5c0,1.9,0,3.8,0,5.6c0,0.4-0.1,0.5-0.4,0.5
			c-1.7,0-3.4,0-5.1,0c-0.3,0-0.4-0.1-0.4-0.5c0-1.9,0-3.8,0-5.7c0-0.4,0.1-0.5,0.5-0.5C25.5,70.4,26.3,70.4,27.1,70.4z"/>
		<path class="st1345632" d="M24.2,13.7c0-0.2,0-0.4,0-0.5c0-1.8,0-3.6,0-5.4c0-0.4,0.1-0.6,0.5-0.6c1.6,0,3.2,0,4.8,0
			c0.4,0,0.5,0.1,0.5,0.6c0,1.8,0,3.7,0,5.5c0,0.1,0,0.3,0,0.5C28.1,13.7,26.2,13.7,24.2,13.7z"/>
		<path class="st1345632" d="M62.6,7.1c-0.8,0-1.7,0-2.5,0c-0.3,0-0.4-0.1-0.4-0.4c0-1.9,0-3.8,0-5.7c0-0.4,0.1-0.4,0.4-0.4
			c1.7,0,3.3,0,5,0c0.3,0,0.4,0.1,0.4,0.5c0,1.9,0,3.7,0,5.6c0,0.4-0.1,0.5-0.5,0.5C64.2,7.1,63.4,7.1,62.6,7.1z"/>
		<path class="st1345632" d="M30,43.7c0,0.9,0,1.9,0,2.8c0,0.3-0.1,0.4-0.4,0.4c-1.7,0-3.4,0-5.1,0c-0.3,0-0.4-0.1-0.4-0.4
			c0-1.9,0-3.8,0-5.6c0-0.3,0.1-0.5,0.4-0.5c1.7,0,3.3,0,5,0c0.3,0,0.4,0.1,0.4,0.5C30,41.9,30,42.8,30,43.7z"/>
		<path class="st1345632" d="M36,0.5c0.4,0,0.8,0,1.1,0c1.4,0,2.8,0,4.2,0c0.4,0,0.5,0.1,0.5,0.5c0,1.8,0,3.7,0,5.5c0,0.4-0.1,0.5-0.5,0.5
			c-1.6,0-3.3,0-4.9,0c-0.1,0-0.3,0-0.4,0C36,4.9,36,2.7,36,0.5z"/>
		<path class="st1345632" d="M18.2,0.5c0,2.2,0,4.4,0,6.5c-0.1,0-0.2,0-0.2,0c-1.7,0-3.5,0-5.2,0c-0.3,0-0.4-0.1-0.4-0.4
			c0-1.9,0-3.8,0-5.7c0-0.1,0.2-0.4,0.3-0.4C14.5,0.5,16.3,0.5,18.2,0.5z"/>
		<path class="st1345632" d="M0.5,23.8c0.6,0,1.1,0,1.6,0c1.3,0,2.5,0,3.8,0c0.3,0,0.4,0.1,0.4,0.5c0,1.9,0,3.7,0,5.6
			c0,0.4-0.1,0.5-0.5,0.5c-1.7,0-3.3,0-5,0c-0.2,0-0.4,0-0.4-0.3C0.5,28,0.5,25.9,0.5,23.8z"/>
		<path class="st1345632" d="M53.7,0.6c0,1.1,0,2.1,0,3.2c-0.2,0-0.4,0-0.6,0c-1.6,0-3.1,0-4.7,0c-0.4,0-0.5-0.1-0.5-0.5
			c0-0.8,0-1.6,0-2.3c0-0.3,0.1-0.4,0.3-0.4c1.8,0,3.6,0,5.4,0C53.6,0.5,53.6,0.5,53.7,0.6z"/>
		<path class="st1345632" d="M30,3.7c-2,0-3.9,0-5.8,0c0-0.5,0-1,0-1.5c0-0.4,0-0.9,0-1.3c0-0.3,0.1-0.4,0.4-0.4c1.7,0,3.4,0,5.1,0
			c0.1,0,0.3,0.2,0.3,0.2C30,1.7,30,2.7,30,3.7z"/>
	</g>
</g>
</svg>
