<?xml version="1.0" encoding="utf-8"?>
<!-- Generator: Adobe Illustrator 22.0.0, SVG Export Plug-In . SVG Version: 6.00 Build 0)  -->
<svg version="1.1" id="Layer_1" xmlns="http://www.w3.org/2000/svg" xmlns:xlink="http://www.w3.org/1999/xlink" x="0px" y="0px"
	 viewBox="0 0 56.2 71.6" style="enable-background:new 0 0 56.2 71.6;" xml:space="preserve">
<style type="text/css">
	.st0{clip-path:url(#SVGID_2_);}
	
		.st1{clip-path:url(#SVGID_2_);fill:none;stroke:#000000;stroke-width:3.5;stroke-linecap:round;stroke-linejoin:round;stroke-miterlimit:10;}
</style>
<g>
	<defs>
		<polygon id="SVGID_1_" points="0,0 54.5,0 56.2,70.7 0,71.6 		"/>
	</defs>
	<clipPath id="SVGID_2_">
		<use xlink:href="#SVGID_1_"  style="overflow:visible;"/>
	</clipPath>
	<path class="st0" d="M1.4,58.9L18,8.8c1.2-3.5,4.5-6,8.2-6.2l19.4-1.2c1.5-0.1,2.9,0.6,3.8,1.8c0.9,1.2,1.1,2.8,0.5,4.2L31.7,54.6
		c-0.9,2.1-3.5,0.6-3-0.7l18-47.4c0.2-0.5,0.8-1.3,0.4-1.7C46.9,4.3,46.3,4,45.8,4L26.4,5.2c-2.7,0.2-4.1,2.3-5,4.9L4.5,60.3
		C3.5,62.6,0.5,61.3,1.4,58.9"/>
	<path class="st0" d="M51.6,64.7l-7.8-46.7c-0.1-0.7,0.5-4,1.3-4.1c0.7-0.1,1.4-1.4,1.6-0.7l8.3,50.6C55.3,66.3,51.8,66.5,51.6,64.7
		"/>
	<path class="st0" d="M22.9,69.5l-7.8-50.3c-0.1-0.7,0.5-3.5,1.3-3.6c0.7-0.1,1.7-0.3,1.8,0.4l8.1,52.9
		C26.7,71.1,23.3,71.1,22.9,69.5"/>
	<path class="st0" d="M3.5,24.2L28.1,22c1.3-0.2,2.6,0,3.8,0.5L46.6,28c0.7,0.3,0.6,1.4-0.2,1.5l-24.2,3.4c-1.5,0.2-3.1,0-4.5-0.7
		L2.8,25.5C2.1,25.2,2.1,24.3,3.5,24.2"/>
	<path class="st1" d="M3.5,24.2L28.1,22c1.3-0.2,2.6,0,3.8,0.5L46.6,28c0.7,0.3,0.6,1.4-0.2,1.5l-24.2,3.4c-1.5,0.2-3.1,0-4.5-0.7
		L2.8,25.5C2.1,25.2,2.1,24.3,3.5,24.2z"/>
	<path class="st0" d="M45.7,2.7L26.3,3.9c-3.2,0.2-6,2.3-7,5.3L18.6,11c15.7,5.8,29.2-2.3,29.2-2.3l0.8-1.9
		C49.5,4.8,47.9,2.6,45.7,2.7"/>
	<path class="st1" d="M45.7,2.7L26.3,3.9c-3.2,0.2-6,2.3-7,5.3L18.6,11c15.7,5.8,29.2-2.3,29.2-2.3l0.8-1.9
		C49.5,4.8,47.9,2.6,45.7,2.7z"/>
</g>
</svg>
