<?xml version="1.0" encoding="utf-8"?>
<!-- Generator: Adobe Illustrator 22.0.0, SVG Export Plug-In . SVG Version: 6.00 Build 0)  -->
<svg version="1.1" id="Layer_1" xmlns="http://www.w3.org/2000/svg" xmlns:xlink="http://www.w3.org/1999/xlink" x="0px" y="0px"
	 viewBox="0 0 76.8 64.7" style="enable-background:new 0 0 76.8 64.7;" xml:space="preserve">
<path d="M76.8,41.3c-0.2-2.5-1.6-4.7-3.8-5.9c-2.2-1.2-4.7-1.2-7-0.1c-0.3,0.1-0.5,0.3-0.8,0.4l-2.9-2.6c-1.7-1.5-3.5-3.1-5.3-4.6
	c0,0,0,0-0.1-0.1c0,0,0,0,0-0.1c1.3-2.7,1.1-5.5-0.8-7.9c-1.9-2.4-4.5-3.3-7.6-2.6c-1.2,0.3-2.3,0.9-3.3,1.8L28.4,9.5
	c1.1-4.1-1.1-7.5-4-8.8c-3.5-1.6-7.6-0.3-9.5,3c-1.7,2.8-1.4,7.1,1.9,9.7L8.4,34c0,0,0,0-0.1,0c-0.5,0-1,0-1.5,0
	c-2.2,0.2-4.2,1.3-5.5,3.1c-1.3,1.8-1.6,4.1-1,6.2c0.8,2.6,2.5,4.4,5.2,5.1c2.8,0.7,5.3,0,7.3-2c3.1,1.7,6.2,3.4,9.4,5.1l7.3,4
	c-0.8,3.5,0.9,6.5,3,7.9c1.3,0.8,2.7,1.3,4.2,1.3c1.4,0,2.9-0.4,4.1-1.2c2.5-1.7,3.7-4.5,3.2-7.5c6.6-3.1,13.1-6.1,19.7-9.3
	c2,2.4,5.4,3.3,8.4,2.1C74.6,47.8,77.1,45.1,76.8,41.3z M44.3,34.6l-1.5-0.3c-2-0.4-4-0.9-6-1.3c-0.1,0-0.2,0-0.3-0.1c0,0,0,0,0,0
	c0-0.2,0-0.4,0-0.5l7.8-3l0.1,0.1c0.5,0.5,1,0.9,1.4,1.4c-0.5,1.2-1,2.4-1.5,3.6L44.3,34.6z M29.2,30c1,0,1.9,0.4,2.6,1.1
	c0.7,0.7,1.1,1.6,1.1,2.5c0,0.9-0.4,1.8-1.1,2.5c-0.7,0.7-1.6,1.1-2.5,1.1c0,0,0,0,0,0c-1.9,0-3.6-1.7-3.6-3.6c0-1,0.4-1.9,1.1-2.5
	C27.3,30.3,28.2,30,29.2,30C29.2,30,29.2,30,29.2,30z M37.7,50c-0.4,0-0.9-0.1-1.3-0.1c-0.8-2.5-1.5-5-2.3-7.5l-0.8-2.7
	c1.2-0.8,2.1-1.8,2.7-3c2.2,0.5,4.4,0.9,6.6,1.4l0.3,0.1l-0.5,1.2C40.7,43,39.2,46.5,37.7,50z M43,25.9l-4,1.5
	c-1.3,0.5-2.7,1-4.1,1.5c-1.5-1.8-3.4-2.8-5.6-2.8c-0.1,0-0.2,0-0.3,0c0,0,0,0,0,0c0,0,0,0,0,0c-1.2-4-2.4-7.9-3.8-12.5
	c0.4-0.3,0.8-0.6,1.2-0.9c0,0,0,0,0,0L43.3,23L43,25.9z M21.6,14.7c0.8,2.5,1.5,4.9,2.3,7.4l1.6,5.1c-2.5,1.5-3.8,3.9-3.6,6.8
	c-2.2,0.8-4.5,1.7-6.7,2.5L13.5,37l-1.6-1.6l8.5-20.7C20.8,14.7,21.2,14.7,21.6,14.7z M53.1,27.6c-0.7,0.7-1.7,1.1-2.6,1.1
	c0,0,0,0,0,0c-0.9,0-1.9-0.4-2.6-1.1c-0.7-0.7-1.1-1.6-1.1-2.5s0.4-1.8,1.1-2.5c0.7-0.7,1.6-1.1,2.5-1.1c0,0,0,0,0,0
	c1.9,0,3.6,1.7,3.7,3.6C54.1,26,53.7,26.9,53.1,27.6z M21.3,11C21.3,11,21.3,11,21.3,11c-1,0-1.9-0.4-2.6-1.1c-0.7-0.7-1-1.6-1-2.5
	c0-1,0.4-1.9,1.1-2.5c0.7-0.7,1.6-1,2.6-1c2,0,3.6,1.7,3.6,3.6C24.9,9.3,23.3,11,21.3,11z M14.7,41.5c0-0.3,0-0.5,0-0.8
	c2.4-0.9,4.9-1.8,7.3-2.8l0.8-0.3c1.6,2.3,3.8,3.4,6.7,3.4l1.3,4.3c0.6,1.9,1.2,3.9,1.8,5.8c-0.5,0.3-0.9,0.7-1.4,1.1
	c0,0-0.1,0.1-0.1,0.1l-0.5-0.3c-0.9-0.5-1.8-1-2.7-1.5l-3.7-2c-3.2-1.7-6.4-3.5-9.7-5.2C14.7,42.6,14.7,42,14.7,41.5z M36.5,53.7
	c2.1,0,3.7,1.5,3.8,3.6c0,0.9-0.3,1.7-1,2.4c-0.7,0.7-1.7,1.2-2.6,1.2c0,0,0,0,0,0c-1.9,0-3.6-1.7-3.6-3.6
	C33,55.4,34.6,53.7,36.5,53.7z M41.2,51.4C41.2,51.4,41.2,51.4,41.2,51.4L46.6,39L62,42.3c0,0.3,0.1,0.6,0.1,1c-2.1,1-4.3,2-6.4,3
	l-4.5,2.1c-3,1.4-5.9,2.8-8.9,4.2C42,52.1,41.6,51.8,41.2,51.4z M48.1,35.4l1.3-3c1.9,0.2,3.6-0.1,5.2-1.1l8.2,7.2L48.1,35.4z
	 M11.1,41.3c0,2-1.6,3.6-3.6,3.6c0,0,0,0,0,0c-0.9,0-1.8-0.4-2.5-1.1c-0.7-0.7-1.1-1.6-1.1-2.5c0-1.9,1.6-3.6,3.6-3.6c0,0,0,0,0,0
	c1,0,1.9,0.4,2.6,1.1C10.7,39.5,11.1,40.4,11.1,41.3z M73,42c0,1.9-1.7,3.6-3.6,3.6c-1,0-1.9-0.4-2.6-1.1c-0.7-0.7-1.1-1.6-1-2.5
	c0-1.9,1.7-3.6,3.6-3.6c0,0,0,0,0,0c0.9,0,1.8,0.4,2.5,1.1C72.6,40.1,73,41,73,42z"/>
</svg>
