<?xml version="1.0" encoding="utf-8"?>
<!-- Generator: Adobe Illustrator 22.0.0, SVG Export Plug-In . SVG Version: 6.00 Build 0)  -->
<svg version="1.1" id="Layer_1" xmlns="http://www.w3.org/2000/svg" xmlns:xlink="http://www.w3.org/1999/xlink" x="0px" y="0px"
	 viewBox="0 0 62.9 52.6" style="enable-background:new 0 0 62.9 52.6;" xml:space="preserve">
<g>
	<g>
		<path d="M47.1,52.6c0-1.7,0-3.1,0-4.7c0.6,0,1.2-0.1,1.7-0.1c2.4-0.3,3.9-1.6,3.9-4.1c0-2.3-0.4-4.6-0.5-6.9
			c-0.1-1.9-0.1-3.9,0.1-5.8c0.3-2.3,1.8-3.8,4-4.5c0.3-0.1,0.5-0.2,1-0.3c-0.4-0.1-0.6-0.2-0.8-0.3c-2.6-0.8-4-2.7-4.3-5.4
			c-0.3-2.4,0.1-4.8,0.4-7.3c0.1-1.4,0.3-2.8,0.2-4.2c-0.1-2.7-1.5-4.2-4.3-4.3c-0.4,0-0.8,0-1.3,0c0-1.6,0-3.1,0-4.6
			c3.9-0.5,8.1,0.4,10.1,3.3c1.4,2,1.6,4.3,1.4,6.6c-0.2,2.3-0.5,4.6-0.7,6.9c-0.1,0.9-0.1,1.8-0.1,2.7c0,2.7,1.4,4.1,4.1,4.4
			c0.3,0,0.6,0,0.9,0.1c0,1.4,0,2.8,0,4.2c-0.5,0.1-1.1,0.1-1.6,0.2c-2.2,0.5-3.5,1.8-3.4,4.1c0.1,2.3,0.4,4.5,0.5,6.8
			c0.1,2.1,0.4,4.3,0.1,6.3c-0.5,3.8-2.9,6-6.7,6.5C50.3,52.6,48.7,52.5,47.1,52.6z"/>
	</g>
	<g>
		<path d="M16,0c0,1.7,0,3.2,0,4.7c-0.8,0.1-1.5,0.1-2.3,0.2c-2,0.3-3.1,1.5-3.4,3.5c-0.3,2.1,0.2,4.1,0.4,6.1
			c0.2,2,0.3,4.1,0.2,6.2c-0.1,2.7-1.7,4.5-4.3,5.3c-0.2,0.1-0.4,0.1-0.8,0.3c0.4,0.2,0.8,0.3,1.1,0.4c2.5,0.9,3.8,2.7,4.1,5.3
			c0.3,2.8-0.2,5.6-0.5,8.3c-0.2,1.3-0.2,2.7-0.1,4c0.2,2.4,1.8,3.6,4.5,3.7c0.4,0,0.7,0,1.1,0c0,1.6,0,3,0,4.6
			c-3.4,0.1-6.8,0.1-9.5-2.6c-1.6-1.6-2.2-3.7-2.1-5.9c0.1-2.4,0.4-4.8,0.6-7.3c0.1-1.3,0.2-2.6,0.2-3.9c0-2.7-1.5-4.3-4.2-4.4
			c-0.8,0-1-0.3-1-1.1c0.1-0.8,0.1-1.6,0-2.4c0-0.7,0.1-1,0.8-0.9c0.4,0,0.9-0.1,1.3-0.2c1.9-0.5,3-1.8,3-3.9
			c-0.1-2.3-0.4-4.6-0.5-6.9C4.5,11.1,4.2,9,4.5,7C5,3.1,7.6,0.7,11.7,0.3C13.1,0.1,14.5,0.1,16,0z"/>
	</g>
</g>
<g>
	<path d="M27.4,25.7L16.8,10.1h8.3l6.4,10.4l6.6-10.4h7.9L35.6,25.7L47,42.8h-8.6l-7.1-11.3L24,42.8h-8.1L27.4,25.7z"/>
</g>
</svg>
