<?xml version="1.0" encoding="utf-8"?>
<!-- Generator: Adobe Illustrator 22.0.0, SVG Export Plug-In . SVG Version: 6.00 Build 0)  -->
<svg version="1.1" id="Layer_1" xmlns="http://www.w3.org/2000/svg" xmlns:xlink="http://www.w3.org/1999/xlink" x="0px" y="0px"
	 viewBox="0 0 288 192" style="enable-background:new 0 0 288 192;" xml:space="preserve">
<g>
	<polygon points="256,128 224,128 192,128 160,128 128,128 96,128 64,128 32,128 0,128 0,160 0,192 32,192 64,192 96,192 128,192 
		160,192 192,192 224,192 256,192 288,192 288,160 288,128 	"/>
	<polygon points="256,0 224,0 192,0 160,0 128,0 96,0 64,0 32,0 0,0 0,32 0,64 32,64 64,64 96,64 128,64 160,64 192,64 224,64 
		256,64 288,64 288,32 288,0 	"/>
</g>
</svg>
